<svg xmlns="http://www.w3.org/2000/svg" viewBox="0 0 160 160"><defs>
<linearGradient id="bg" x1="0" y1="0" x2="1" y2="1"><stop stop-color="#122d50"/><stop offset=".52" stop-color="#071a31"/><stop offset="1" stop-color="#030b17"/></linearGradient>
<linearGradient id="edge" x1="0" y1="0" x2="1" y2="1"><stop stop-color="#6bc7ff"/><stop offset=".5" stop-color="#1988ff"/><stop offset="1" stop-color="#0951a5"/></linearGradient>
<linearGradient id="hot" x1="0" y1="0" x2="1" y2="1"><stop stop-color="#c8f0ff"/><stop offset=".45" stop-color="#43b7ff"/><stop offset="1" stop-color="#1673e8"/></linearGradient>
<radialGradient id="core"><stop stop-color="#e9fbff"/><stop offset=".28" stop-color="#78d5ff"/><stop offset=".7" stop-color="#1489ff"/><stop offset="1" stop-color="#05254d"/></radialGradient>
<filter id="shadow" x="-30%" y="-30%" width="160%" height="180%"><feDropShadow dx="0" dy="6" stdDeviation="5" flood-color="#000" flood-opacity=".7"/><feDropShadow dx="0" dy="0" stdDeviation="2" flood-color="#2da6ff" flood-opacity=".45"/></filter>
<filter id="glow"><feGaussianBlur stdDeviation="2.2" result="b"/><feMerge><feMergeNode in="b"/><feMergeNode in="SourceGraphic"/></feMerge></filter>
</defs><path d="M80 10l55 32v64l-55 32-55-32V42z" fill="url(#bg)" stroke="url(#edge)" stroke-width="5" filter="url(#shadow)"/><path d="M80 27l40 23v46l-40 23-40-23V50z" fill="none" stroke="#3eaaff" stroke-width="3" opacity=".7"/><path d="M55 49h34c18 0 29 9 29 24 0 10-5 17-14 21 8 4 12 10 12 19H94c0-8-5-12-15-12H71v12H51V49zm16 18v18h16c8 0 12-3 12-9s-4-9-12-9z" fill="url(#hot)"/><circle cx="121" cy="39" r="7" fill="#6ee0ff" filter="url(#glow)"/></svg>