<svg xmlns="http://www.w3.org/2000/svg" viewBox="0 0 96 96" role="img"><defs>
<linearGradient id="bg" x1="0" y1="0" x2="1" y2="1"><stop stop-color="#122d50"/><stop offset=".52" stop-color="#071a31"/><stop offset="1" stop-color="#030b17"/></linearGradient>
<linearGradient id="edge" x1="0" y1="0" x2="1" y2="1"><stop stop-color="#6bc7ff"/><stop offset=".5" stop-color="#1988ff"/><stop offset="1" stop-color="#0951a5"/></linearGradient>
<linearGradient id="hot" x1="0" y1="0" x2="1" y2="1"><stop stop-color="#c8f0ff"/><stop offset=".45" stop-color="#43b7ff"/><stop offset="1" stop-color="#1673e8"/></linearGradient>
<radialGradient id="core"><stop stop-color="#e9fbff"/><stop offset=".28" stop-color="#78d5ff"/><stop offset=".7" stop-color="#1489ff"/><stop offset="1" stop-color="#05254d"/></radialGradient>
<filter id="shadow" x="-30%" y="-30%" width="160%" height="180%"><feDropShadow dx="0" dy="6" stdDeviation="5" flood-color="#000" flood-opacity=".7"/><feDropShadow dx="0" dy="0" stdDeviation="2" flood-color="#2da6ff" flood-opacity=".45"/></filter>
<filter id="glow"><feGaussianBlur stdDeviation="2.2" result="b"/><feMerge><feMergeNode in="b"/><feMergeNode in="SourceGraphic"/></feMerge></filter>
</defs><rect x="10" y="8" width="76" height="80" rx="20" fill="url(#bg)" stroke="#184c7d" stroke-width="2" filter="url(#shadow)"/><rect x="14" y="12" width="68" height="72" rx="16" fill="none" stroke="#2d8fde" stroke-opacity=".55"/><path d="M24 14h31" stroke="#d3f5ff" stroke-opacity=".35" stroke-width="2" stroke-linecap="round"/><circle cx="72" cy="20" r="2" fill="#66d8ff"/><circle cx="65" cy="20" r="2" fill="#187bca"/><path d="M22 35h21l6 7h27v29a7 7 0 0 1-7 7H27a7 7 0 0 1-7-7V40a5 5 0 0 1 2-5z" fill="#0b3159" stroke="url(#edge)" stroke-width="2"/><path d="M22 48h54" stroke="#69cfff" stroke-width="2"/><path d="M32 58h32v12H32z" fill="#07182b" stroke="#289df8"/><path d="M38 61h20M38 66h14" stroke="#83ddff" stroke-width="2" stroke-linecap="round"/><path d="M27 29h20l5 6H27z" fill="#1b78c2" opacity=".7"/></svg>