<svg xmlns="http://www.w3.org/2000/svg" viewBox="0 0 64 64" fill="none"><defs><linearGradient id="g" x1="10" y1="8" x2="54" y2="56" gradientUnits="userSpaceOnUse"><stop stop-color="#8BCEFF"/><stop offset="1" stop-color="#277DD8"/></linearGradient><filter id="s" x="-20%" y="-20%" width="140%" height="140%"><feGaussianBlur stdDeviation="1.8" result="b"/><feMerge><feMergeNode in="b"/><feMergeNode in="SourceGraphic"/></feMerge></filter></defs><rect x="5" y="5" width="54" height="54" rx="14" fill="#071426" stroke="#4DA3FF" stroke-opacity=".55"/><circle cx="32" cy="32" r="19" stroke="url(#g)" stroke-width="2"/><path d="M13 32h38M32 13c6 6 9 12 9 19s-3 13-9 19M32 13c-6 6-9 12-9 19s3 13 9 19M17 22c8 4 22 4 30 0M17 42c8-4 22-4 30 0" stroke="#73BCFF" stroke-width="1.4" stroke-linecap="round" opacity=".85"/><path d="M20 38Q31 18 45 27" stroke="#9ED7FF" stroke-width="1.8" stroke-linecap="round" stroke-dasharray="3 3" filter="url(#s)"/><circle cx="20" cy="38" r="2.6" fill="#B7E2FF" filter="url(#s)"/><circle cx="45" cy="27" r="2.6" fill="#4DA3FF" filter="url(#s)"/></svg>
