<svg xmlns="http://www.w3.org/2000/svg" viewBox="0 0 96 96" role="img"><defs>
<linearGradient id="bg" x1="0" y1="0" x2="1" y2="1"><stop stop-color="#122d50"/><stop offset=".52" stop-color="#071a31"/><stop offset="1" stop-color="#030b17"/></linearGradient>
<linearGradient id="edge" x1="0" y1="0" x2="1" y2="1"><stop stop-color="#6bc7ff"/><stop offset=".5" stop-color="#1988ff"/><stop offset="1" stop-color="#0951a5"/></linearGradient>
<linearGradient id="hot" x1="0" y1="0" x2="1" y2="1"><stop stop-color="#c8f0ff"/><stop offset=".45" stop-color="#43b7ff"/><stop offset="1" stop-color="#1673e8"/></linearGradient>
<radialGradient id="core"><stop stop-color="#e9fbff"/><stop offset=".28" stop-color="#78d5ff"/><stop offset=".7" stop-color="#1489ff"/><stop offset="1" stop-color="#05254d"/></radialGradient>
<filter id="shadow" x="-30%" y="-30%" width="160%" height="180%"><feDropShadow dx="0" dy="6" stdDeviation="5" flood-color="#000" flood-opacity=".7"/><feDropShadow dx="0" dy="0" stdDeviation="2" flood-color="#2da6ff" flood-opacity=".45"/></filter>
<filter id="glow"><feGaussianBlur stdDeviation="2.2" result="b"/><feMerge><feMergeNode in="b"/><feMergeNode in="SourceGraphic"/></feMerge></filter>
</defs><rect x="10" y="8" width="76" height="80" rx="20" fill="url(#bg)" stroke="#184c7d" stroke-width="2" filter="url(#shadow)"/><rect x="14" y="12" width="68" height="72" rx="16" fill="none" stroke="#2d8fde" stroke-opacity=".55"/><path d="M24 14h31" stroke="#d3f5ff" stroke-opacity=".35" stroke-width="2" stroke-linecap="round"/><circle cx="72" cy="20" r="2" fill="#66d8ff"/><circle cx="65" cy="20" r="2" fill="#187bca"/><path d="M27 22h42v48H27z" fill="#0a2948" stroke="url(#edge)" stroke-width="2"/><path d="M34 31h28M34 38h20M34 45h24" stroke="#66cfff" stroke-width="2" stroke-linecap="round"/><circle cx="55" cy="58" r="10" fill="url(#core)" stroke="#d8f6ff"/><path d="M50 67l-4 12 9-5 8 5-3-13" fill="#147fd6" stroke="#56c9ff"/><path d="M31 25h8v4h-8z" fill="#79d9ff"/></svg>