<svg xmlns="http://www.w3.org/2000/svg" viewBox="0 0 96 96" role="img"><defs>
<linearGradient id="bg" x1="0" y1="0" x2="1" y2="1"><stop stop-color="#122d50"/><stop offset=".52" stop-color="#071a31"/><stop offset="1" stop-color="#030b17"/></linearGradient>
<linearGradient id="edge" x1="0" y1="0" x2="1" y2="1"><stop stop-color="#6bc7ff"/><stop offset=".5" stop-color="#1988ff"/><stop offset="1" stop-color="#0951a5"/></linearGradient>
<linearGradient id="hot" x1="0" y1="0" x2="1" y2="1"><stop stop-color="#c8f0ff"/><stop offset=".45" stop-color="#43b7ff"/><stop offset="1" stop-color="#1673e8"/></linearGradient>
<radialGradient id="core"><stop stop-color="#e9fbff"/><stop offset=".28" stop-color="#78d5ff"/><stop offset=".7" stop-color="#1489ff"/><stop offset="1" stop-color="#05254d"/></radialGradient>
<filter id="shadow" x="-30%" y="-30%" width="160%" height="180%"><feDropShadow dx="0" dy="6" stdDeviation="5" flood-color="#000" flood-opacity=".7"/><feDropShadow dx="0" dy="0" stdDeviation="2" flood-color="#2da6ff" flood-opacity=".45"/></filter>
<filter id="glow"><feGaussianBlur stdDeviation="2.2" result="b"/><feMerge><feMergeNode in="b"/><feMergeNode in="SourceGraphic"/></feMerge></filter>
</defs><rect x="10" y="8" width="76" height="80" rx="20" fill="url(#bg)" stroke="#184c7d" stroke-width="2" filter="url(#shadow)"/><rect x="14" y="12" width="68" height="72" rx="16" fill="none" stroke="#2d8fde" stroke-opacity=".55"/><path d="M24 14h31" stroke="#d3f5ff" stroke-opacity=".35" stroke-width="2" stroke-linecap="round"/><circle cx="72" cy="20" r="2" fill="#66d8ff"/><circle cx="65" cy="20" r="2" fill="#187bca"/><path d="M28 63c2-10 10-16 20-16s18 6 20 16v8H28z" fill="#0b3b6b" stroke="url(#edge)" stroke-width="2"/><circle cx="48" cy="34" r="11" fill="url(#hot)"/><path d="M43 34h10M48 29v10" stroke="#06172b" stroke-width="2" opacity=".45"/><path d="M22 70h52" stroke="#4bc5ff" stroke-width="2"/><rect x="24" y="23" width="8" height="4" rx="2" fill="#4bc5ff"/><path d="M67 28h7v16" fill="none" stroke="#37b8ff" stroke-width="2" stroke-dasharray="2 3"/></svg>